<?xml version="1.0" encoding="UTF-8" standalone="no"?>
<!-- Uploaded to: SVG Repo, www.svgrepo.com, Generator: SVG Repo Mixer Tools -->

<svg
   width="564.96777"
   height="748.90851"
   viewBox="0 0 16.949033 22.467255"
   version="1.1"
   id="svg1"
   sodipodi:docname="gorae.svg"
   inkscape:version="1.4.2 (ebf0e940d0, 2025-05-08)"
   xmlns:inkscape="http://www.inkscape.org/namespaces/inkscape"
   xmlns:sodipodi="http://sodipodi.sourceforge.net/DTD/sodipodi-0.dtd"
   xmlns="http://www.w3.org/2000/svg"
   xmlns:svg="http://www.w3.org/2000/svg"
   xmlns:rdf="http://www.w3.org/1999/02/22-rdf-syntax-ns#"
   xmlns:cc="http://creativecommons.org/ns#"
   xmlns:dc="http://purl.org/dc/elements/1.1/">
  <defs
     id="defs1" />
  <sodipodi:namedview
     id="namedview1"
     pagecolor="#ffffff"
     bordercolor="#000000"
     borderopacity="0.25"
     inkscape:showpageshadow="2"
     inkscape:pageopacity="0.0"
     inkscape:pagecheckerboard="0"
     inkscape:deskcolor="#d1d1d1"
     inkscape:zoom="0.52560725"
     inkscape:cx="216.89198"
     inkscape:cy="277.77395"
     inkscape:window-width="2560"
     inkscape:window-height="1566"
     inkscape:window-x="0"
     inkscape:window-y="0"
     inkscape:window-maximized="1"
     inkscape:current-layer="svg1" />
  <title
     id="title1">fish_fill</title>
  <path
     id="形状"
     style="fill:#063070;fill-opacity:0.766359;fill-rule:evenodd;stroke:none;stroke-width:1.02297"
     d="M 8.1297161,0.63386165 C 6.5419551,1.2747756 4.8410717,2.5371839 3.7738727,4.3856931 3.1058625,5.542762 -3.0098252,8.373646 1.8804568,8.291981 c 0.2136692,0.2055402 0.166812,3.054125 0.5264063,4.500253 0.03867,0.155487 0.083106,0.32477 0.1322625,0.505515 l 0.160591,0.574077 0.1825883,0.627944 0.8465012,2.835241 c -0.5801093,0.257665 -1.1116341,0.509286 -1.5364938,0.74086 l -0.3413134,0.192236 c -0.3422816,0.203267 -0.6744421,0.445826 -0.87878977,0.782805 -0.116087,0.191359 -0.5797017,0.91777 -0.1177105,1.011582 1.25168977,0.254169 1.94106667,-0.0381 2.92319987,0.396038 0.8214377,0.376125 1.2807554,1.697021 2.0789111,1.981964 0.5514645,0.196873 0.8024015,-0.73904 0.8167575,-1.286655 0.0079,-0.301656 -0.0381,-0.652912 -0.09949,-0.994939 -0.08508,-0.474013 -0.221394,-1.04312 -0.383545,-1.653663 0.469023,-0.19359 0.955024,-0.391016 1.433375,-0.585415 l 1.000265,-0.407389 0.926065,-0.384002 0.5505649,-0.235939 0.479117,-0.214859 c 1.358746,-0.629191 3.683482,-2.476023 4.309725,-2.128562 1.368133,0.837519 1.927405,1.230452 1.776808,0.498655 l -0.218226,-4.643906 0.0025,-0.0525 C 17.279796,7.8500681 16.970461,5.6465666 16.28025,3.9529631 15.879284,2.968929 15.352518,2.1614115 14.854715,1.5628545 14.385216,0.99828805 13.864609,0.52779535 13.432782,0.32248485 13.000952,0.1171651 12.305533,0.00965209 11.568544,6.2645842e-4 10.787205,-0.00896354 9.8239131,0.09011196 8.8011301,0.39732385 c -0.220028,0.066087 -0.444591,0.1449787 -0.671414,0.2365378 z m 3.9416799,2.91972515 0.596715,3.6469071 -3.6155279,1.8865235 -0.527407,-3.71035 z" />
  <metadata
     id="metadata1">
    <rdf:RDF>
      <cc:Work
         rdf:about="">
        <dc:title>fish_fill</dc:title>
      </cc:Work>
    </rdf:RDF>
  </metadata>
</svg>
